<?xml version="1.0" encoding="utf-8"?>
<!-- Generator: Adobe Illustrator 16.0.0, SVG Export Plug-In . SVG Version: 6.00 Build 0)  -->
<!DOCTYPE svg PUBLIC "-//W3C//DTD SVG 1.1//EN" "http://www.w3.org/Graphics/SVG/1.1/DTD/svg11.dtd">
<svg version="1.1" xmlns="http://www.w3.org/2000/svg" xmlns:xlink="http://www.w3.org/1999/xlink" x="0px" y="0px" width="140px"
	 height="140px" viewBox="0 0 140 140" enable-background="new 0 0 140 140" xml:space="preserve">
<g id="Layer_1" display="none">
</g>
<g id="Layer_2">
	<path fill="#D4123A" d="M106,95c0,3.313-2.687,6-6,6H39c-3.313,0-6-2.687-6-6V42c0-3.313,2.687-6,6-6h61c3.313,0,6,2.687,6,6V95z"
		/>
	<path fill="#26CC9F" stroke="#26CC9F" stroke-miterlimit="10" d="M69.935,111.459c11.668,0.145,19.374,10.645,25.357,18.277
		c5.081,6.484,13.93,7.174,17.72,1.426c8.254-12.514-16.571-56.113-16.571-56.113c3.406,0.402,9.244,4.998,11.266,8.043
		c4.427,6.662,11.165,13.191,17.521,10.063c6.77-3.332,4.057-14.625-5.111-28.643c-2.044-3.127-9.17-12.377-19.091-14.772
		c-6.148-1.484-6.96-1.603-6.96-1.603l-0.289-16.662C93.775,16.493,83.739,7.5,70.371,7.5h-0.808
		c-13.368,0-23.437,8.993-23.437,23.975L45.821,48.18c0,0-0.82,0.096-6.969,1.581c-9.921,2.396-17.051,11.635-19.095,14.762
		C10.59,78.54,7.875,89.828,14.645,93.16c6.355,3.129,13.093-3.404,17.52-10.066c2.021-3.045,7.859-7.641,11.266-8.043
		c0,0-24.826,43.598-16.572,56.111c3.79,5.748,12.639,5.059,17.72-1.426c5.983-7.633,13.755-18.133,25.423-18.277"/>
	<path fill="#D4123A" d="M88,48V32.231c0-10.96-8.221-19.845-18-19.845c-9.781,0-18,8.885-18,19.845V48H88z"/>
	<path fill="#D4123A" d="M85,82.84c0,2.85-2.31,5.16-5.158,5.16H59.158C56.31,88,54,85.689,54,82.84V61.16
		c0-2.85,2.31-5.16,5.158-5.16h20.684C82.69,56,85,58.31,85,61.16V82.84z"/>
	<path fill="#FFFFFF" d="M74,15.25c0,0,8.25,0.75,7.5,29.75H85C85,45,89.5,19.75,74,15.25z"/>
</g>
</svg>
